<svg width="17" height="32" viewBox="0 0 17 32" fill="none" xmlns="http://www.w3.org/2000/svg">
<path d="M15.399 30.5116V6.86729C15.3989 6.6139 15.3191 6.36696 15.171 6.16138C15.0229 5.9558 14.8139 5.80198 14.5736 5.72168L2.50606 1.69918C2.32461 1.63837 2.13128 1.62165 1.94208 1.65039C1.75289 1.67914 1.57325 1.75253 1.41805 1.86449C1.26285 1.97644 1.13654 2.12375 1.04958 2.29422C0.962622 2.46469 0.917507 2.65342 0.917972 2.84479V30.5116" stroke="#A0A3BD" stroke-width="1.6" stroke-linecap="round" stroke-linejoin="round"/>
<path d="M10.5703 22.8916V24.0984" stroke="#A0A3BD" stroke-width="1.6" stroke-linecap="round" stroke-linejoin="round"/>
<path d="M10.5703 16.8579V18.0647" stroke="#A0A3BD" stroke-width="1.6" stroke-linecap="round" stroke-linejoin="round"/>
<path d="M10.5703 10.8242V12.031" stroke="#A0A3BD" stroke-width="1.6" stroke-linecap="round" stroke-linejoin="round"/>
<path d="M5.74609 22.8916V24.0984" stroke="#A0A3BD" stroke-width="1.6" stroke-linecap="round" stroke-linejoin="round"/>
<path d="M5.74609 16.8579V18.0647" stroke="#A0A3BD" stroke-width="1.6" stroke-linecap="round" stroke-linejoin="round"/>
<path d="M5.74609 10.8242V12.031" stroke="#A0A3BD" stroke-width="1.6" stroke-linecap="round" stroke-linejoin="round"/>
</svg>
