<svg width="17" height="29" viewBox="0 0 17 29" fill="none" xmlns="http://www.w3.org/2000/svg">
<path d="M13.2434 1.51172H3.06946C1.82082 1.51172 0.808594 2.52394 0.808594 3.77259V25.2508C0.808594 26.4995 1.82082 27.5117 3.06946 27.5117H13.2434C14.492 27.5117 15.5042 26.4995 15.5042 25.2508V3.77259C15.5042 2.52394 14.492 1.51172 13.2434 1.51172Z" stroke="#A0A3BD" stroke-width="1.6" stroke-linecap="round" stroke-linejoin="round"/>
<path d="M11.8595 1.51172V2.99295C11.8595 3.38579 11.7035 3.76255 11.4257 4.04033C11.1479 4.31812 10.7711 4.47418 10.3783 4.47418H5.9346C5.54175 4.47418 5.165 4.31812 4.88721 4.04033C4.60943 3.76255 4.45337 3.38579 4.45337 2.99295V1.51172" stroke="#A0A3BD" stroke-width="1.6" stroke-linecap="round" stroke-linejoin="round"/>
</svg>
